<svg xmlns="http://www.w3.org/2000/svg" viewBox="0 0 1352 374.776"><defs><style>.cls-1{fill:#c61044;}</style></defs><g id="logo_positivo" data-name="logo positivo"><path d="M180.156,263.915l-.3-18.185q-13.64,22.128-41.523,22.125a61.451,61.451,0,0,1-26.065-5.455,56.944,56.944,0,0,1-20.307-15.76,76.3,76.3,0,0,1-13.336-25.157q-4.851-14.845-4.849-33.642a111.15,111.15,0,0,1,4.092-31.066,73.339,73.339,0,0,1,11.972-24.4,54.153,54.153,0,0,1,19.246-15.911A57.826,57.826,0,0,1,135,110.858q27.576,0,44.25,23.337V60.243h38.795V263.915Zm-32.733-28.187q14.243,0,23.792-11.82t9.547-30.915q0-48.489-33.036-48.493-33.948,0-33.946,46.068,0,20.005,9.4,32.582T147.423,235.728Z"/><path d="M236.225,96.915V60.243h39.4V96.915Zm0,167V114.8h39.4V263.915Z"/><path d="M339.875,263.915,286.533,114.8H330.48L361.7,213.3l31.521-98.5h41.523L381.1,263.915Z"/><path class="cls-1" d="M445.347,263.915V60.243h38.8V134.2q16.665-23.335,44.25-23.337a57.826,57.826,0,0,1,25.913,5.607,54.208,54.208,0,0,1,19.247,15.911,73.452,73.452,0,0,1,11.971,24.4,111.15,111.15,0,0,1,4.092,31.066q0,18.8-4.849,33.642A76.48,76.48,0,0,1,571.43,246.64a56.642,56.642,0,0,1-20.458,15.76,61.786,61.786,0,0,1-25.914,5.455q-27.888,0-41.523-22.125l-.3,18.185Zm70.619-28.187q14.846,0,24.246-12.578t9.4-32.582q0-46.065-33.946-46.068-33.039,0-33.036,48.493,0,19.1,9.547,30.915T515.966,235.728Z"/><path class="cls-1" d="M699.024,244.215q-4.248,10-15.306,15.609a54.506,54.506,0,0,1-25,5.606,61.16,61.16,0,0,1-21.822-3.788,49.315,49.315,0,0,1-17.276-10.911,50.59,50.59,0,0,1-11.366-16.973,57.577,57.577,0,0,1-4.091-22.277V114.8h39.4v90.925q0,27.888,25.155,27.884,13.639,0,21.974-7.881t8.335-20V114.8h39.4V267.855a71.24,71.24,0,0,1-5.3,28.187,59.912,59.912,0,0,1-14.547,20.913,64.149,64.149,0,0,1-21.823,13.032,78.316,78.316,0,0,1-26.823,4.546q-33.039,0-49.4-16.669T604.159,272.1h36.673q0,13.334,7.728,20.913t23.186,7.578a23.976,23.976,0,0,0,10.305-2.274,27.832,27.832,0,0,0,8.638-6.364,30.547,30.547,0,0,0,6.062-10.154,37.732,37.732,0,0,0,2.273-13.336Z"/><path d="M751.155,263.915V233.607l76.074-87.592H756.307V114.8H877.541v31.823l-76.074,85.167h78.2v32.127Z"/><path d="M921.185,199.661q.911,16.977,9.851,26.974t23.489,10a32.984,32.984,0,0,0,17.124-4.4,19.9,19.9,0,0,0,9.547-12.275h40.613q-6.975,23.035-24.246,35.461t-41.22,12.426q-74.559,0-74.559-81.227a94.6,94.6,0,0,1,4.849-31.217,67.351,67.351,0,0,1,14.094-23.944,60.889,60.889,0,0,1,22.58-15.305q13.333-5.3,30.612-5.3,34.551,0,52.281,22.125t17.731,66.678Zm62.132-24.852a41.51,41.51,0,0,0-2.879-14.4,30.163,30.163,0,0,0-6.819-10.305,27.169,27.169,0,0,0-9.7-6.062,32.821,32.821,0,0,0-11.214-1.97,27.959,27.959,0,0,0-20.458,8.638q-8.639,8.637-9.85,24.1Z"/><path d="M1037.568,263.915V114.8h36.976V132.68a48.285,48.285,0,0,1,10.154-11.821,43.832,43.832,0,0,1,10.91-6.516,41.911,41.911,0,0,1,11.367-2.88,113.33,113.33,0,0,1,11.819-.6h5.152v40.31a66.16,66.16,0,0,0-10.91-.91q-36.072,0-36.067,36.067v77.59Z"/><path d="M1147.185,247.276l22.324-35.14q-3.113-9.433-3.121-22.779,0-45.159,36.068-45.16a46.685,46.685,0,0,1,9.615.944l18.921-29.783a85.923,85.923,0,0,0-28.536-4.5q-17.888,0-31.976,5.607a68.372,68.372,0,0,0-24.1,15.911,69.168,69.168,0,0,0-15.305,24.854,93.148,93.148,0,0,0-5.3,32.127,94.616,94.616,0,0,0,5.153,31.823,68.466,68.466,0,0,0,15,24.853C1146.337,246.459,1146.767,246.862,1147.185,247.276Z"/><path d="M1272.923,156.926a69.175,69.175,0,0,0-14.386-23.863l-22.564,35.518a75.356,75.356,0,0,1,2.549,20.776q0,45.462-36.066,45.462a47.92,47.92,0,0,1-8.143-.662l-18.948,29.825a89.912,89.912,0,0,0,27.091,3.873,84.219,84.219,0,0,0,31.368-5.607,66.743,66.743,0,0,0,23.945-15.912,70.6,70.6,0,0,0,15.154-24.7,92.913,92.913,0,0,0,5.3-32.278A94.23,94.23,0,0,0,1272.923,156.926Z"/></g></svg>